HIERARCHY
ROOT Hips
{
	OFFSET 0.00000 0.00000 0.00000
	CHANNELS 6 Xposition Yposition Zposition Zrotation Yrotation Xrotation 
	JOINT LHipJoint
	{
		OFFSET 0 0 0
		CHANNELS 3 Zrotation Yrotation Xrotation
		JOINT LeftUpLeg
		{
			OFFSET 1.41261 -1.82971 0.84908
			CHANNELS 3 Zrotation Yrotation Xrotation
			JOINT LeftLeg
			{
				OFFSET 2.52554 -6.93888 0.00000
				CHANNELS 3 Zrotation Yrotation Xrotation
				JOINT LeftFoot
				{
					OFFSET 2.56654 -7.05152 0.00000
					CHANNELS 3 Zrotation Yrotation Xrotation
					JOINT LeftToeBase
					{
						OFFSET 0.21698 -0.59616 1.85369
						CHANNELS 3 Zrotation Yrotation Xrotation
						End Site
						{
							OFFSET 0.00000 -0.00000 0.97832
						}
					}
				}
			}
		}
	}
	JOINT RHipJoint
	{
		OFFSET 0 0 0
		CHANNELS 3 Zrotation Yrotation Xrotation
		JOINT RightUpLeg
		{
			OFFSET -1.12808 -1.82971 0.84907
			CHANNELS 3 Zrotation Yrotation Xrotation
			JOINT RightLeg
			{
				OFFSET -2.53425 -6.96280 0.00000
				CHANNELS 3 Zrotation Yrotation Xrotation
				JOINT RightFoot
				{
					OFFSET -2.58413 -7.09983 0.00000
					CHANNELS 3 Zrotation Yrotation Xrotation
					JOINT RightToeBase
					{
						OFFSET -0.26437 -0.72636 1.92241
						CHANNELS 3 Zrotation Yrotation Xrotation
						End Site
						{
							OFFSET -0.00000 -0.00000 1.02667
						}
					}
				}
			}
		}
	}
	JOINT LowerBack
	{
		OFFSET 0 0 0
		CHANNELS 3 Zrotation Yrotation Xrotation
		JOINT Spine
		{
			OFFSET -0.02096 2.02288 -0.14752
			CHANNELS 3 Zrotation Yrotation Xrotation
			JOINT Spine1
			{
				OFFSET 0.03477 2.03136 -0.02358
				CHANNELS 3 Zrotation Yrotation Xrotation
				JOINT Neck
				{
					OFFSET 0 0 0
					CHANNELS 3 Zrotation Yrotation Xrotation
					JOINT Neck1
					{
						OFFSET 0.00174 1.74359 0.19336
						CHANNELS 3 Zrotation Yrotation Xrotation
						JOINT Head
						{
							OFFSET -0.03054 1.76140 -0.17751
							CHANNELS 3 Zrotation Yrotation Xrotation
							End Site
							{
								OFFSET -0.00863 1.77239 -0.08120
							}
						}
					}
				}
				JOINT LeftShoulder
				{
					OFFSET 0 0 0
					CHANNELS 3 Zrotation Yrotation Xrotation
					JOINT LeftArm
					{
						OFFSET 3.68685 1.32687 -0.67367
						CHANNELS 3 Zrotation Yrotation Xrotation
						JOINT LeftForeArm
						{
							OFFSET 4.76468 -0.00000 -0.00000
							CHANNELS 3 Zrotation Yrotation Xrotation
							JOINT LeftHand
							{
								OFFSET 3.52712 -0.00000 -0.00000
								CHANNELS 3 Zrotation Yrotation Xrotation
								JOINT LeftFingerBase
								{
									OFFSET 0 0 0
									CHANNELS 3 Zrotation Yrotation Xrotation
									JOINT LeftHandIndex1
									{
										OFFSET 0.85956 -0.00000 -0.00000
										CHANNELS 3 Zrotation Yrotation Xrotation
										End Site
										{
											OFFSET 0.69300 -0.00000 -0.00000
										}
									}
								}
								JOINT LThumb
								{
									OFFSET 0 0 0
									CHANNELS 3 Zrotation Yrotation Xrotation
									End Site
									{
										OFFSET 0.70358 -0.00000 0.70358
									}
								}
							}
						}
					}
				}
				JOINT RightShoulder
				{
					OFFSET 0 0 0
					CHANNELS 3 Zrotation Yrotation Xrotation
					JOINT RightArm
					{
						OFFSET -3.31304 1.28268 -0.97357
						CHANNELS 3 Zrotation Yrotation Xrotation
						JOINT RightForeArm
						{
							OFFSET -4.90577 -0.00000 -0.00000
							CHANNELS 3 Zrotation Yrotation Xrotation
							JOINT RightHand
							{
								OFFSET -3.42692 -0.00000 0.00000
								CHANNELS 3 Zrotation Yrotation Xrotation
								JOINT RightFingerBase
								{
									OFFSET 0 0 0
									CHANNELS 3 Zrotation Yrotation Xrotation
									JOINT RightHandIndex1
									{
										OFFSET -0.74096 -0.00000 -0.00000
										CHANNELS 3 Zrotation Yrotation Xrotation
										End Site
										{
											OFFSET -0.59738 -0.00000 -0.00000
										}
									}
								}
								JOINT RThumb
								{
									OFFSET 0 0 0
									CHANNELS 3 Zrotation Yrotation Xrotation
									End Site
									{
										OFFSET -0.60650 -0.00000 0.60650
									}
								}
							}
						}
					}
				}
			}
		}
	}
}
MOTION
Frames: 11
Frame Time: .0083333
-0.2484 15.3349 -23.0233 -2.3427 2.7871 30.1919 0.0000 0.0000 0.0000 -11.8513 -8.7525 -40.6305 11.8688 18.3346 65.5723 3.4674 -10.0885 -33.7165 3.0602 -10.7919 -31.5814 0.0000 0.0000 0.0000 19.1190 11.9786 -39.2694 -12.1352 -18.4472 66.4168 -2.7846 -1.3823 -32.1048 -1.2410 -7.0638 19.9046 -0.0391 0.4569 21.1801 2.4521 0.9021 -0.3304 2.4868 0.5186 -12.3566 -0.7800 -0.4975 -14.1127 1.4330 -0.5330 -6.2519 0.5525 -0.2304 0.3806 -0.0000 -0.0000 0.0000 -91.4382 -17.0899 35.2622 118.4478 -56.7096 -84.3644 -0.0000 -0.0000 158.6940 21.9995 29.4386 11.2311 -7.1250 0.0000 -0.0000 -10.6291 60.9956 -4.1692 -0.0000 -0.0000 0.0000 82.7771 23.3652 41.2768 -82.5119 59.7871 -53.5198 0.0000 -0.0000 -4.9860 -7.7275 -20.9943 2.7833 7.1250 -0.0000 -0.0000 20.6099 -49.9872 -2.6326
-0.2858 15.4674 -22.4016 -1.6593 3.4056 28.3928 0.0000 0.0000 0.0000 -12.9397 -7.7052 -34.0716 10.5601 17.7130 61.3446 3.2291 -10.9265 -32.4727 3.4243 -11.3522 -33.4770 0.0000 0.0000 0.0000 20.0435 9.2546 -32.9019 -10.6903 -17.7802 61.7717 -2.6040 -1.9702 -31.2738 -1.1693 -6.8641 19.3133 -0.7716 0.1201 19.9567 2.3265 0.2640 -0.8230 2.9574 0.2682 -12.1946 0.0628 -0.4856 -14.6530 1.2845 -0.6710 -3.9537 0.3589 -0.3053 1.2176 0.0000 0.0000 0.0000 -87.9322 -19.0717 35.4249 129.4207 -53.2265 -93.3625 -0.0000 -0.0000 158.1270 22.8399 30.1637 11.9493 -7.1250 0.0000 -0.0000 -10.1255 61.9349 -4.1946 0.0000 0.0000 0.0000 78.9874 24.2939 41.6551 -96.3209 59.8485 -65.4713 0.0000 -0.0000 -5.4623 -7.2658 -23.0132 2.8535 7.1250 -0.0000 -0.0000 22.0547 -51.7935 -3.8450
-0.2929 15.6778 -21.6757 -0.2115 3.6193 26.2409 0.0000 0.0000 0.0000 -15.0252 -6.5175 -26.3400 8.8969 16.7409 55.7329 2.5910 -12.3316 -29.0580 3.6299 -11.6510 -34.5082 0.0000 0.0000 0.0000 19.4403 5.8136 -25.6655 -9.0559 -16.8436 56.2833 -2.4998 -0.9882 -30.2981 -1.1373 -6.7727 19.0438 -1.9862 -0.0990 18.6075 1.8977 -0.3500 -1.2611 3.3384 0.0418 -11.8770 0.1248 -0.6336 -14.3265 1.5436 -0.9040 -2.1074 0.4186 -0.4055 1.7789 -0.0000 0.0000 0.0000 -83.7621 -19.5883 34.2709 137.4143 -49.5294 -99.6150 -0.0000 -0.0000 158.0600 22.4693 31.6211 12.2348 -7.1250 0.0000 -0.0000 -11.5525 63.2951 -5.1638 -0.0000 0.0000 0.0000 74.6813 23.7141 41.3418 -107.9661 58.7445 -75.4935 0.0000 -0.0000 -8.2878 -8.5731 -23.8762 3.4919 7.1250 -0.0000 -0.0000 21.2764 -52.8166 -4.2464
-0.2959 15.9884 -20.8016 0.9012 3.7901 24.1441 0.0000 0.0000 0.0000 -16.4892 -4.6952 -18.0255 7.0016 15.3332 48.8803 1.5701 -13.9305 -23.0650 3.7509 -11.8214 -35.1029 0.0000 0.0000 0.0000 18.5365 1.9830 -18.3924 -7.2311 -15.5234 49.7429 -1.6438 -1.0362 -24.6348 -0.6234 -5.0526 14.0588 -3.0701 -0.2397 16.4031 1.6269 -0.7579 -1.5697 3.7232 -0.1126 -10.9123 -0.1419 -0.8021 -14.2692 1.7745 -1.1232 -0.0024 0.5276 -0.4934 2.4884 0.0000 -0.0000 0.0000 -78.8993 -18.3724 32.1709 142.7140 -46.3772 -103.5533 -0.0000 -0.0000 157.2830 21.4195 33.8346 12.3213 -7.1250 0.0000 -0.0000 -14.5871 65.1767 -7.1858 0.0000 -0.0000 0.0000 69.4935 22.2021 40.2139 -116.5901 57.1522 -82.8076 0.0000 -0.0000 -8.1324 -7.8886 -24.3744 3.2728 7.1250 -0.0000 -0.0000 22.2112 -53.1585 -4.6389
-0.2704 16.3830 -19.8465 -0.0012 3.9755 21.9762 0.0000 0.0000 0.0000 -15.5412 -2.0423 -10.2222 5.3076 13.7220 42.1351 0.5573 -14.3055 -15.5904 4.4140 -12.6918 -38.2254 0.0000 0.0000 0.0000 19.1253 -0.9003 -10.8380 -5.6508 -14.0812 43.5637 -0.7300 0.5709 -15.9615 -0.2900 -3.4630 9.5706 -2.0370 -0.3088 13.7888 1.7988 -0.5892 -1.7602 3.2244 -0.1140 -9.6295 -0.5434 -0.9246 -14.1140 1.9305 -1.2609 2.1818 0.6442 -0.5460 3.2232 -0.0000 0.0000 0.0000 -74.1629 -16.9784 29.3727 146.7099 -43.5518 -106.3785 -0.0000 -0.0000 156.0080 22.1352 34.4318 12.9528 -7.1250 0.0000 -0.0000 -14.2749 65.9568 -7.2858 -0.0000 0.0000 0.0000 64.1435 19.4629 38.7649 -123.1323 55.4158 -88.2518 0.0000 -0.0000 -4.6839 -5.8496 -22.7364 2.2675 7.1250 -0.0000 -0.0000 23.2377 -51.3063 -3.7826
-0.2365 16.8350 -18.8829 -0.2687 3.5506 20.2331 0.0000 0.0000 0.0000 -15.4791 -0.1065 -3.7847 3.7754 11.8554 35.2224 -0.4916 -14.1487 -2.2548 5.1123 -13.5091 -41.3056 0.0000 0.0000 0.0000 18.3054 -3.0038 -5.6825 -4.5606 -12.8711 38.8880 -0.0210 0.0839 -2.7044 -0.0222 0.9629 -2.6467 -1.7796 -0.2151 10.9573 1.8051 -0.3902 -1.9272 2.9940 -0.0560 -8.1902 -1.0058 -0.9170 -13.7710 2.0297 -1.2117 4.2321 0.7702 -0.5161 3.8878 0.0000 -0.0000 0.0000 -69.0017 -14.2260 26.1542 149.5623 -41.2656 -108.3028 -0.0000 -0.0000 156.0330 22.2315 34.9700 13.1846 -7.1250 0.0000 -0.0000 -14.6726 66.5036 -7.6766 0.0000 -0.0000 0.0000 59.0398 16.5240 37.5984 -128.3414 53.6429 -92.4957 0.0000 -0.0000 -0.4779 -5.4279 -21.8349 2.0240 7.1250 -0.0000 -0.0000 23.1575 -50.4124 -3.2406
-0.2109 17.3275 -17.9360 -0.8039 2.9899 18.4425 0.0000 0.0000 0.0000 -15.3396 0.2207 2.2393 2.4487 9.7440 28.1515 -0.1852 -12.3180 14.8140 6.0042 -14.4324 -44.9986 0.0000 0.0000 0.0000 17.7882 -3.2809 -0.4529 -3.2858 -11.1440 32.7670 -0.7318 -4.4139 15.2734 -0.1740 2.6870 -7.4086 -1.3625 -0.1068 8.7612 1.9538 -0.1642 -2.0654 2.8489 0.0237 -7.0888 -1.7421 -0.7896 -13.0058 2.3382 -0.9764 6.1780 0.9306 -0.3921 3.9721 0.0000 -0.0000 0.0000 -64.1542 -9.9047 22.3746 152.0211 -39.0968 -109.8896 -0.0000 -0.0000 156.8770 23.9695 35.2866 14.4037 -7.1250 0.0000 -0.0000 -12.8253 67.3238 -6.9357 0.0000 -0.0000 0.0000 54.2241 13.6949 36.8949 -131.7412 52.2687 -95.2097 0.0000 0.0000 1.8041 -5.4833 -22.7568 2.1266 7.1250 -0.0000 -0.0000 23.5907 -51.2656 -3.8213
-0.1997 17.8351 -17.0400 -0.8664 2.5506 16.9270 0.0000 0.0000 0.0000 -16.1035 -0.7192 6.6417 1.8150 8.4696 24.1496 1.0394 -10.1904 25.4581 5.3608 -13.7790 -42.3591 0.0000 0.0000 0.0000 17.3672 -2.6390 2.9252 -2.7828 -10.3349 30.0682 -1.9314 -8.2693 24.9323 -0.5206 -4.6244 12.8404 -1.4108 -0.0626 7.4943 2.0390 -0.0965 -2.3179 2.9452 0.0573 -6.6336 -2.1812 -0.7589 -13.5761 1.8909 -0.8410 9.3089 0.8746 -0.3603 5.0304 0.0000 -0.0000 0.0000 -60.2617 -4.6621 19.0510 153.5213 -37.6776 -110.8213 -0.0000 -0.0000 157.8640 23.3942 36.5341 14.4420 -7.1250 0.0000 -0.0000 -14.8551 68.3512 -8.3973 0.0000 -0.0000 0.0000 50.8751 11.3070 36.5669 -133.1773 51.6308 -96.3406 0.0000 0.0000 0.9347 -6.2144 -22.6860 2.4048 7.1250 -0.0000 -0.0000 22.8694 -51.3191 -3.7245
-0.1786 18.3155 -16.2234 -1.4269 1.6334 16.3053 0.0000 0.0000 0.0000 -16.5526 -1.3033 7.3136 1.9398 8.7396 24.9842 2.1202 -10.8168 33.1220 3.3913 -11.3031 -33.3089 0.0000 0.0000 0.0000 18.0097 -0.3926 2.7515 -3.4406 -11.3762 33.5595 -2.1244 -5.0054 26.4557 -0.2368 -3.1316 8.6452 -0.7066 0.1333 5.8201 1.9684 0.2264 -2.2681 2.4221 0.1762 -5.6371 -2.8306 -0.5595 -13.7030 2.4884 -0.5345 10.2943 1.1951 -0.1931 5.3563 -0.0000 0.0000 0.0000 -57.0987 0.0875 15.7920 153.7576 -37.4471 -110.9654 -0.0000 -0.0000 157.6040 23.3793 36.8334 14.5294 -7.1250 0.0000 -0.0000 -15.2115 68.6317 -8.6983 -0.0000 0.0000 0.0000 48.4261 10.2352 35.9287 -133.1721 51.6332 -96.3366 0.0000 -0.0000 -3.1819 -7.6222 -23.6696 3.0752 7.1250 -0.0000 -0.0000 22.0715 -52.4607 -4.2200
-0.1972 18.7510 -15.5448 -0.4692 0.6508 16.1286 0.0000 0.0000 0.0000 -18.2365 -1.7662 4.9341 2.7572 10.2913 29.9252 2.5364 -10.8560 35.4606 1.4815 -7.6903 -21.7772 0.0000 0.0000 0.0000 17.1593 2.0007 0.8551 -4.5679 -12.8800 38.9210 -2.0591 -6.1537 25.8937 -0.7340 -5.4737 15.2648 -2.1116 0.1277 5.3181 1.6773 0.0973 -2.4651 2.9232 0.1586 -5.5555 -2.5066 -0.1912 -12.8511 1.8379 -0.0375 10.4959 0.9794 0.0109 5.2642 0.0000 -0.0000 0.0000 -55.3489 5.4108 13.1355 153.1289 -38.0560 -110.5805 -0.0000 -0.0000 157.2620 23.2921 35.1938 13.9347 -7.1250 0.0000 -0.0000 -13.5836 67.0317 -7.2614 0.0000 -0.0000 0.0000 47.6666 10.1162 35.9343 -131.3229 52.4478 -94.8785 0.0000 -0.0000 -4.7562 -7.0797 -23.7260 2.8608 7.1250 -0.0000 -0.0000 22.6184 -52.4201 -4.3103
-0.2128 19.1339 -14.9055 -0.9152 -0.3002 15.6434 0.0000 0.0000 0.0000 -18.1547 -1.3162 2.3421 3.7338 11.7974 35.0191 2.0011 -10.5608 32.2468 2.4061 -9.6651 -27.8989 0.0000 0.0000 0.0000 17.8092 3.8986 -1.2548 -5.6854 -14.1163 43.7055 -2.2936 -8.9059 27.2263 -1.5928 -7.9608 22.5952 -2.0293 0.2229 5.2330 1.6260 0.2287 -2.1631 2.8080 0.2110 -5.1979 -1.5424 0.0410 -12.2296 0.6568 0.2429 10.1211 0.4739 0.1034 5.0409 0.0000 0.0000 0.0000 -55.0638 10.8850 10.8834 152.0211 -39.0968 -109.8896 -0.0000 -0.0000 157.8450 22.3706 34.5462 13.1371 -7.1250 0.0000 -0.0000 -14.0963 66.1352 -7.2508 0.0000 0.0000 0.0000 48.7239 10.2343 35.7356 -127.9832 53.7772 -92.2069 0.0000 -0.0000 -4.1762 -6.9722 -24.0206 2.8499 7.1250 -0.0000 -0.0000 22.8857 -52.6727 -4.5117
